<?xml-stylesheet type="text/css" href="../../css/social.css"?>
<svg id="btn_3" width="39" height="46" viewBox="0 0 39 46" xmlns="http://www.w3.org/2000/svg">
<path d="M20.5052 0.683001C20.1081 0.229147 19.5274 -0.0212848 18.9248 0.00142064C18.3222 0.0241239 17.762 0.31749 17.4002 0.799858L17.4001 0.799993L17.3998 0.800407L17.3976 0.803344L17.3875 0.816659L17.3456 0.872164C17.3081 0.921668 17.2519 0.995701 17.1786 1.09159C17.0318 1.2834 16.8169 1.56242 16.5467 1.90729C16.0059 2.59769 15.2466 3.54862 14.3735 4.5902C12.5962 6.71055 10.4562 9.07382 8.75061 10.4383C3.40998 14.7108 0 20.2396 0 27C0 33.0179 2.20471 37.816 5.7709 41.0969C9.31107 44.3538 14.0646 46 19.0001 46C28.792 46 39 39.3933 39 27C39 21.1855 37.6761 16.893 36.3057 14.0151C35.6223 12.5801 34.9312 11.5044 34.3953 10.7721C34.1274 10.406 33.8982 10.1255 33.7281 9.9286C33.643 9.83014 33.5726 9.75253 33.5195 9.6955C33.4929 9.66698 33.4706 9.6436 33.453 9.62533L33.43 9.60175L33.4212 9.59282L33.4175 9.58906L33.4158 9.58737C33.415 9.58657 33.4142 9.58579 32 11L33.4142 9.58579C32.9241 9.09565 32.2151 8.89425 31.5405 9.0535C30.8709 9.21156 30.33 9.70252 30.1076 10.3528L30.1021 10.3679C30.0942 10.389 30.0783 10.4303 30.0536 10.4894C30.004 10.6078 29.9194 10.7965 29.7927 11.0373C29.5387 11.5197 29.1198 12.2038 28.4815 12.9484C27.6867 13.8757 26.54 14.9121 24.9146 15.7743C25.0163 15.1045 25.0931 14.3674 25.1235 13.5769C25.2635 9.93681 24.4135 5.14962 20.5052 0.683001ZM17.439 7.15981C18.0049 6.48476 18.5239 5.84731 18.9705 5.28952C20.801 8.19468 21.2161 11.0922 21.1265 13.4231C21.071 14.8645 20.8211 16.0856 20.5868 16.9399C20.4701 17.3655 20.3586 17.6955 20.2798 17.9108C20.2405 18.0183 20.2096 18.0968 20.1904 18.1439L20.1711 18.1904C20.17 18.1931 20.1693 18.1947 20.1691 18.1952L20.17 18.1931L20.1708 18.1912C19.8622 18.8892 19.9777 19.7021 20.4687 20.2866C20.9606 20.872 21.7433 21.1257 22.4851 20.9403C26.9343 19.828 29.7818 17.5777 31.5185 15.5516C31.7594 15.2706 31.9783 14.9946 32.1768 14.7274C32.3456 15.0324 32.5196 15.368 32.6943 15.7349C33.8239 18.107 35 21.8145 35 27C35 33.4993 31.4337 38.0701 26.585 40.347C26.8489 39.6035 27 38.8137 27 38C27 34.6711 25.0135 32.1742 23.3514 30.6507C22.4946 29.8652 21.646 29.2651 21.0143 28.8615C20.6964 28.6584 20.4283 28.5018 20.2344 28.3933C20.1373 28.339 20.0585 28.2965 20.0009 28.2661L19.9307 28.2296L19.9082 28.2181L19.9002 28.214L19.897 28.2125L19.8957 28.2118C19.895 28.2114 19.8944 28.2111 19 30L19.8944 28.2111L19 27.7639L18.1056 28.2111L19 30C18.1056 28.2111 18.105 28.2114 18.1043 28.2118L18.103 28.2125L18.0998 28.214L18.0918 28.2181L18.0693 28.2296L17.9991 28.2661C17.9415 28.2965 17.8627 28.339 17.7656 28.3933C17.5717 28.5018 17.3036 28.6584 16.9857 28.8615C16.354 29.2651 15.5054 29.8652 14.6486 30.6507C12.9865 32.1742 11 34.6711 11 38C11 38.7535 11.1185 39.48 11.3309 40.1658C10.2922 39.6128 9.33406 38.9397 8.47912 38.1531C5.79529 35.684 4 31.9821 4 27C4 21.7604 6.59002 17.2892 11.2494 13.5617C13.2938 11.9262 15.6539 9.28945 17.439 7.15981ZM20.1716 18.1894C20.172 18.1886 20.1724 18.1877 22 19L20.1724 18.1877L20.1716 18.1894ZM20.6486 33.5993C21.9865 34.8258 23 36.3289 23 38C23 38.8495 22.5551 39.8665 21.7108 40.7108C20.8665 41.5551 19.8495 42 19 42C18.1089 42 17.0911 41.5697 16.2732 40.77C15.4616 39.9764 15 38.9694 15 38C15 36.3289 16.0135 34.8258 17.3514 33.5993C17.9357 33.0637 18.5268 32.6331 19 32.3225C19.4732 32.6331 20.0643 33.0637 20.6486 33.5993Z" fill="inhert"/>
</svg>
