<?xml-stylesheet type="text/css" href="../../css/social.css"?>
<svg width="30" height="30" viewBox="0 0 30 30" fill="none" xmlns="http://www.w3.org/2000/svg">
<path fill-rule="evenodd" clip-rule="evenodd" d="M15 0C6.71575 0 0 6.71575 0 15C0 23.2843 6.71575 30 15 30C23.2843 30 30 23.2843 30 15C30 6.71575 23.2843 0 15 0ZM15 21C15 22.6569 13.6569 24 12 24C10.3431 24 9 22.6569 9 21C9 19.3431 10.3431 18 12 18C10.3431 18 9 16.6569 9 15C9 13.3431 10.3431 12 12 12C10.3431 12 9 10.6569 9 9C9 7.34314 10.3431 6 12 6H15H18C19.6569 6 21 7.34314 21 9C21 10.6569 19.6569 12 18 12H15V15V18V21ZM15 15C15 16.6569 16.3431 18 18 18C19.6569 18 21 16.6569 21 15C21 13.3431 19.6569 12 18 12C16.3431 12 15 13.3431 15 15Z" fill="white"/>
</svg>
