<?xml-stylesheet type="text/css" href="../../css/social.css"?>
<svg width="30" height="30" viewBox="0 0 30 30" fill="none" xmlns="http://www.w3.org/2000/svg">
<path d="M15.0001 0C6.71687 0 0 6.8854 0 15.3796C0 22.1749 4.29799 27.9399 10.258 29.9736C11.0077 30.1159 11.2829 29.6399 11.2829 29.2337C11.2829 28.867 11.269 27.6554 11.2625 26.3703C7.08946 27.3007 6.2089 24.5557 6.2089 24.5557C5.52656 22.778 4.54341 22.3053 4.54341 22.3053C3.18245 21.3507 4.646 21.3703 4.646 21.3703C6.15227 21.4786 6.94539 22.9552 6.94539 22.9552C8.28325 25.3065 10.4545 24.6267 11.3105 24.2337C11.4451 23.24 11.8338 22.561 12.2628 22.1772C8.93107 21.7883 5.42869 20.4695 5.42869 14.5764C5.42869 12.8972 6.01466 11.5252 6.97421 10.4482C6.81846 10.0605 6.30503 8.49653 7.11952 6.37806C7.11952 6.37806 8.37914 5.96471 11.2456 7.95456C12.4421 7.61379 13.7254 7.4429 15.0001 7.43704C16.2749 7.4429 17.5591 7.61379 18.7579 7.95456C21.6209 5.96471 22.8787 6.37806 22.8787 6.37806C23.6952 8.49653 23.1815 10.0605 23.0258 10.4482C23.9876 11.5252 24.5696 12.8972 24.5696 14.5764C24.5696 20.4835 21.0605 21.7842 17.7203 22.1649C18.2583 22.6422 18.7377 23.5782 18.7377 25.0131C18.7377 27.0707 18.7203 28.7269 18.7203 29.2337C18.7203 29.643 18.9904 30.1226 19.7507 29.9715C25.7075 27.9356 30 22.1726 30 15.3796C30 6.8854 23.2841 0 15.0001 0Z" fill="white"/>
<path d="M5.68151 22.0819C5.64847 22.1586 5.53123 22.1812 5.42442 22.1288C5.31562 22.0786 5.25452 21.9744 5.28979 21.8978C5.32208 21.8191 5.43957 21.7974 5.54812 21.8496C5.65717 21.9001 5.71926 22.0053 5.68151 22.0819Z" fill="white"/>
<path d="M6.28891 22.7767C6.21737 22.8447 6.07752 22.8131 5.98263 22.7056C5.88452 22.5984 5.86614 22.455 5.93867 22.386C6.01244 22.318 6.14807 22.3498 6.24643 22.4571C6.34455 22.5656 6.36367 22.7079 6.28891 22.7767Z" fill="white"/>
<path d="M6.88033 23.6625C6.78843 23.728 6.63815 23.6666 6.54525 23.5298C6.45334 23.393 6.45334 23.229 6.54723 23.1633C6.64038 23.0976 6.78843 23.1567 6.88257 23.2924C6.97423 23.4312 6.97423 23.5955 6.88033 23.6625Z" fill="white"/>
<path d="M7.69043 24.5182C7.60821 24.6112 7.43309 24.5862 7.30492 24.4594C7.17377 24.3354 7.13725 24.1594 7.21972 24.0664C7.30293 23.9732 7.47905 23.9994 7.60821 24.1253C7.73837 24.249 7.77812 24.4263 7.69043 24.5182Z" fill="white"/>
<path d="M8.80812 25.0151C8.77185 25.1356 8.60319 25.1903 8.43329 25.1391C8.26363 25.0864 8.1526 24.9453 8.18688 24.8236C8.22215 24.7023 8.39156 24.6453 8.5627 24.7001C8.73211 24.7525 8.84339 24.8926 8.80812 25.0151Z" fill="white"/>
<path d="M10.0362 25.1073C10.0404 25.2341 9.89634 25.3393 9.71799 25.3414C9.53865 25.3457 9.39359 25.2431 9.3916 25.1183C9.3916 24.9902 9.53244 24.886 9.71178 24.8829C9.89013 24.8794 10.0362 24.9812 10.0362 25.1073Z" fill="white"/>
<path d="M11.1781 24.9079C11.1995 25.0317 11.0755 25.1587 10.8984 25.1924C10.7243 25.2252 10.5631 25.1488 10.541 25.0261C10.5194 24.8992 10.6456 24.7721 10.8194 24.7393C10.9968 24.7077 11.1555 24.7821 11.1781 24.9079Z" fill="white"/>
</svg>
