<?xml-stylesheet type="text/css" href="../../css/social.css"?>
<svg width="30" height="30" viewBox="0 0 30 30" fill="none" xmlns="http://www.w3.org/2000/svg">
<path d="M0.616662 19.3756C2.49104 25.5258 8.21433 30 14.9839 30C23.2769 30 30 23.2841 30 15C30 6.71575 23.2769 0 14.9839 0C7.02587 0 0.514286 6.18399 0 14.0034C0.00594538 14.0134 0.0118686 14.0234 0.0177695 14.0333C0.0188493 14.0121 0.0195096 14.0011 0.0195059 14.0011L8.04703 17.329C8.26542 17.1844 8.49817 17.0591 8.74657 16.9571C9.31004 16.7233 9.90429 16.6187 10.4965 16.6459L14.1523 11.298C14.151 11.2743 14.151 11.2489 14.151 11.2236C14.151 8.06751 16.6965 5.5 19.8255 5.5C22.9558 5.5 25.5 8.06751 25.5 11.2236C25.5 14.3795 22.9558 16.9493 19.8255 16.9493C19.7832 16.9493 19.7396 16.948 19.6973 16.9468L14.4665 20.7111C14.4819 21.2922 14.3754 21.8746 14.1472 22.4299C13.27 24.5542 10.8388 25.5654 8.73015 24.6782C7.44137 24.1371 6.56782 23.0123 6.28287 21.73L0.616662 19.3756Z" fill="white"/>
<path d="M13.274 22.0606C12.5951 23.7019 10.7221 24.4806 9.09401 23.7975C8.34293 23.4824 7.77586 22.9051 7.44873 22.2168L9.29599 22.9878C10.4967 23.4914 11.8742 22.9181 12.3733 21.7093C12.8739 20.4993 12.306 19.1098 11.1059 18.6062L9.19635 17.8094C9.9332 17.5279 10.7708 17.5175 11.5535 17.8455C12.3425 18.1761 12.9547 18.7986 13.2792 19.5941C13.6036 20.3895 13.6023 21.2677 13.274 22.0606Z" fill="white"/>
<path fill-rule="evenodd" clip-rule="evenodd" d="M16.0449 11.2236C16.0449 13.327 17.7415 15.0381 19.8254 15.0381C21.9105 15.0381 23.6071 13.327 23.6071 11.2236C23.6071 9.12193 21.9105 7.41034 19.8254 7.41034C17.7415 7.41034 16.0449 9.12193 16.0449 11.2236ZM19.8318 14.0825C18.2647 14.0825 16.9926 12.8003 16.9926 11.2178C16.9926 9.63551 18.2647 8.35215 19.8318 8.35215C21.4001 8.35215 22.6722 9.63551 22.6722 11.2178C22.6722 12.8003 21.4001 14.0825 19.8318 14.0825Z" fill="white"/>
</svg>
