<?xml-stylesheet type="text/css" href="../../css/social.css"?>
<svg width="30" height="30" viewBox="0 0 30 30" fill="none" xmlns="http://www.w3.org/2000/svg">
<path fill-rule="evenodd" clip-rule="evenodd" d="M0 15C0 23.2843 6.71573 30 15 30C23.2843 30 30 23.2843 30 15C30 6.71573 23.2843 0 15 0C6.71573 0 0 6.71573 0 15ZM9.00266 24C7.34434 24 6 22.6618 6 20.9973V9.00266C6 7.34434 7.33822 6 9.00266 6H20.9973C22.6557 6 24 7.33822 24 9.00266V20.9973C24 22.6557 22.6618 24 20.9973 24H9.00266Z" fill="white"/>
<path d="M8.33984 9.41924C8.33984 8.82319 8.82343 8.34 9.41958 8.34H12.7501C13.3464 8.34 13.8298 8.82321 13.8298 9.41924V19.6357C13.8298 20.2318 13.3463 20.715 12.7501 20.715H9.41958C8.82326 20.715 8.33984 20.2318 8.33984 19.6357V9.41924Z" fill="white"/>
<path d="M16.1699 9.42053C16.1699 8.82377 16.6535 8.34 17.2497 8.34H20.5802C21.1765 8.34 21.6599 8.82371 21.6599 9.42053V15.1345C21.6599 15.7312 21.1763 16.215 20.5802 16.215H17.2497C16.6533 16.215 16.1699 15.7313 16.1699 15.1345V9.42053Z" fill="white"/>
</svg>
