<?xml-stylesheet type="text/css" href="../../css/social.css"?>
<svg width="30" height="30" viewBox="0 0 30 30" fill="none" xmlns="http://www.w3.org/2000/svg">
<path fill-rule="evenodd" clip-rule="evenodd" d="M0 15C0 23.2843 6.71573 30 15 30C23.2843 30 30 23.2843 30 15C30 6.71573 23.2843 0 15 0C6.71573 0 0 6.71573 0 15ZM24.4138 14.4259C24.4119 19.3427 20.4122 23.3433 15.4944 23.3453H15.4907C13.9979 23.3448 12.5311 22.9703 11.2283 22.2597L6.5 23.5L7.76538 18.878C6.98483 17.5253 6.57411 15.9909 6.57478 14.4189C6.57673 9.50106 10.578 5.5 15.4943 5.5C17.8804 5.50103 20.1199 6.42992 21.8039 8.11588C23.4879 9.80176 24.4148 12.0427 24.4138 14.4259Z" fill="white"/>
<path fill-rule="evenodd" clip-rule="evenodd" d="M8.64138 21.381L11.4472 20.6449L11.718 20.8056C12.8562 21.481 14.161 21.8384 15.4912 21.839H15.4943C19.5804 21.839 22.906 18.5132 22.9077 14.4254C22.9084 12.4445 22.1381 10.5819 20.7384 9.18061C19.3387 7.7793 17.4773 7.0072 15.4972 7.00652C11.4079 7.00652 8.08219 10.3319 8.08057 14.4194C8.07999 15.8202 8.47194 17.1844 9.21404 18.3648L9.39031 18.6453L8.64138 21.381ZM19.6826 16.3463C19.838 16.4214 19.943 16.4721 19.9878 16.547C20.0435 16.6399 20.0435 17.0861 19.8579 17.6068C19.6721 18.1274 18.7817 18.6025 18.3535 18.6665C17.9696 18.7239 17.4837 18.7478 16.9498 18.5781C16.6261 18.4755 16.211 18.3383 15.6793 18.1087C13.5899 17.2065 12.178 15.1815 11.9111 14.7988C11.8924 14.772 11.8794 14.7532 11.8721 14.7435L11.8703 14.7411C11.7523 14.5837 10.962 13.5293 10.962 12.438C10.962 11.4114 11.4663 10.8733 11.6984 10.6256C11.7143 10.6087 11.729 10.5931 11.7421 10.5788C11.9463 10.3556 12.1878 10.2999 12.3364 10.2999C12.4849 10.2999 12.6337 10.3012 12.7635 10.3077C12.7795 10.3086 12.7962 10.3085 12.8134 10.3084C12.9433 10.3076 13.1052 10.3066 13.265 10.6903C13.3264 10.838 13.4163 11.0569 13.5112 11.2878C13.7029 11.7547 13.9148 12.2705 13.9521 12.3451C14.0078 12.4567 14.045 12.5868 13.9707 12.7356C13.9595 12.7579 13.9492 12.779 13.9394 12.7991C13.8836 12.913 13.8425 12.9968 13.7478 13.1074C13.7106 13.1508 13.6721 13.1977 13.6336 13.2446C13.5569 13.338 13.4803 13.4313 13.4135 13.4978C13.3019 13.609 13.1858 13.7295 13.3158 13.9527C13.4458 14.1758 13.8931 14.9056 14.5556 15.4966C15.2678 16.1318 15.8868 16.4003 16.2006 16.5364C16.2618 16.563 16.3115 16.5845 16.3479 16.6027C16.5707 16.7143 16.7007 16.6957 16.8307 16.547C16.9607 16.3982 17.3878 15.8962 17.5364 15.6731C17.6849 15.45 17.8336 15.4872 18.0378 15.5615C18.2421 15.636 19.3378 16.1751 19.5607 16.2866C19.6042 16.3084 19.6449 16.3281 19.6826 16.3463Z" fill="white"/>
</svg>
